Coordinates
version=1
nRows=26
nColumns=24
inDegrees=yes

Units are S.I. units (second, meters, Newtons, ...)
Angles are in degrees.

endheader
time	pelvis_tilt	pelvis_list	pelvis_rotation	pelvis_tx	pelvis_ty	pelvis_tz	hip_flexion_r	hip_adduction_r	hip_rotation_r	knee_angle_r	ankle_angle_r	subtalar_angle_r	mtp_angle_r	hip_flexion_l	hip_adduction_l	hip_rotation_l	knee_angle_l	ankle_angle_l	subtalar_angle_l	mtp_angle_l	lumbar_extension	lumbar_bending	lumbar_rotation
      0.43000000	     -0.77336920	      2.97617856	     -0.92059285	     -0.79057790	      1.03957681	      0.24706836	     26.37164073	     -1.27904109	     -3.21754221	     -7.56227739	      3.69737633	     -1.01095427	     11.96548550	    -17.26629732	      5.02918130	      2.16636454	     -8.19543901	     18.72428372	      8.97648105	      5.87258425	    -15.00456409	     -2.34731128	     -4.50160312
      0.43416667	     -0.81210248	      2.87096046	     -0.82404041	     -0.78413239	      1.03885131	      0.24718797	     26.46292806	     -1.14995626	     -3.05795326	     -8.27196382	      3.32444872	     -1.50042614	     11.94011719	    -17.25416894	      4.86582528	      2.05490492	     -8.91321004	     18.78314531	      9.28497421	      5.97459842	    -14.89479027	     -2.08539080	     -4.52916821
      0.43833333	     -0.83031940	      2.75099468	     -0.72311338	     -0.77766679	      1.03821049	      0.24730541	     26.53348690	     -1.01215739	     -2.92354697	     -9.01464796	      2.92956782	     -1.97716800	     11.91641685	    -17.24288687	      4.67959117	      1.89346223	     -9.67378590	     18.85051040	      9.67844580	      6.12262923	    -14.81328121	     -1.80664582	     -4.52571778
      0.44250000	     -0.84999389	      2.63403881	     -0.61470397	     -0.77118824	      1.03762597	      0.24742920	     26.60601921	     -0.88322728	     -2.78432744	     -9.78228974	      2.54326945	     -2.43221547	     11.89015971	    -17.20015576	      4.48780247	      1.69826796	    -10.49535512	     18.86412362	     10.11276200	      6.34114447	    -14.74262558	     -1.53490212	     -4.51897353
      0.44666667	     -0.88161511	      2.50677863	     -0.52111792	     -0.76465976	      1.03707029	      0.24757736	     26.70517065	     -0.74200356	     -2.67019532	    -10.59984786	      2.12531817	     -2.87387890	     11.86094762	    -17.14324554	      4.28807194	      1.50960307	    -11.31489793	     18.85423509	     10.51834804	      6.57049757	    -14.63306653	     -1.24111901	     -4.51739556
      0.45083333	     -0.88760045	      2.37317086	     -0.41701818	     -0.75814019	      1.03661765	      0.24772926	     26.77078258	     -0.60132360	     -2.55604577	    -11.42221146	      1.72571895	     -3.30256589	     11.82290676	    -17.07294553	      4.06806046	      1.25209280	    -12.21487136	     18.80864819	     11.01489135	      6.86957684	    -14.56948357	     -0.94567480	     -4.50769859
      0.45500000	     -0.91856902	      2.24821619	     -0.31217463	     -0.75160835	      1.03618753	      0.24789881	     26.87594794	     -0.47346622	     -2.46251582	    -12.28576685	      1.34772955	     -3.69133041	     11.77651799	    -16.95388101	      3.85401222	      1.01787673	    -13.15230366	     18.70324742	     11.46720122	      7.20790718	    -14.46933190	     -0.66292619	     -4.50110459
      0.45916667	     -0.92830345	      2.11525676	     -0.20749733	     -0.74506243	      1.03584579	      0.24808155	     26.95706123	     -0.34170944	     -2.38311967	    -13.16070745	      0.99516734	     -4.05714811	     11.71592676	    -16.82482911	      3.62039315	      0.72399953	    -14.15047479	     18.56253536	     11.99507667	      7.61953458	    -14.40005363	     -0.37041164	     -4.48889181
      0.46333333	     -0.89420341	      1.98820843	     -0.10175336	     -0.73853404	      1.03563636	      0.24826813	     27.00067306	     -0.22540643	     -2.35363342	    -14.06676567	      0.70911786	     -4.31228698	     11.10846018	    -16.73038786	      3.38841866	      0.45255724	    -15.14465832	     18.24102774	     12.43611655	     11.83853697	    -14.39592200	     -0.09884579	     -4.39475389
      0.46750000	     -0.92408368	      1.86294876	      0.00558859	     -0.73195869	      1.03538510	      0.24848060	     27.10812229	     -0.10912025	     -2.29839893	    -14.97546560	      0.43722868	     -4.62266637	     11.08949146	    -16.53282786	      3.15370777	      0.18798770	    -16.22219300	     17.98476083	     12.88149197	     11.92348559	    -14.29118948	      0.19320334	     -4.46370440
      0.47166667	     -0.90691957	      1.72994968	      0.11251856	     -0.72540817	      1.03525841	      0.24870910	     27.16555781	      0.00825020	     -2.28983820	    -15.89112370	      0.22024166	     -4.85559564	     11.05290675	    -16.34447980	      2.89492659	     -0.14378527	    -17.36850927	     17.68065633	     13.44011926	     12.08799501	    -14.25364630	      0.47988567	     -4.43854853
      0.47583333	     -0.83472274	      1.58952772	      0.20774885	     -0.71887223	      1.03526791	      0.24898388	     27.15780184	      0.13820073	     -2.27368558	    -16.80178913	      0.06546917	     -5.10248195	     10.95608021	    -16.19602414	      2.61753911	     -0.51585094	    -18.53463574	     17.30368889	     14.04305721	     12.52149162	    -14.29726862	      0.77456168	     -4.40483825
      0.48000000	     -0.86268709	      1.46957668	      0.31143509	     -0.71229323	      1.03517033	      0.24925500	     27.25843967	      0.23615742	     -2.30347485	    -17.72047609	     -0.04580420	     -5.20461240	     10.89857901	    -15.89739252	      2.35915039	     -0.84271768	    -19.78538507	     16.85947652	     14.49926686	     12.78002987	    -14.18741955	      1.03442354	     -4.39904625
      0.48416667	     -0.81260731	      1.33415266	      0.40790137	     -0.70575761	      1.03524477	      0.24957082	     27.26123638	      0.35356815	     -2.34108580	    -18.61385230	     -0.09998298	     -5.32421527	     10.82303727	    -15.64814583	      2.06522173	     -1.23376319	    -21.08448399	     16.36092871	     15.07578424	     13.12023761	    -14.19357937	      1.31705964	     -4.37883497
      0.48833333	     -0.76425326	      1.20657479	      0.50206613	     -0.69922786	      1.03538538	      0.24991638	     27.24721299	      0.46794081	     -2.36344327	    -19.47187925	     -0.13029005	     -5.49094783	      9.83254927	    -15.37849525	      1.77778948	     -1.56868173	    -22.38636477	     15.65896738	     15.49292247	     17.59293382	    -14.19999863	      1.57979130	     -4.31346323
      0.49250000	     -0.70580595	      1.07190994	      0.59223791	     -0.69269843	      1.03556522	      0.25026631	     27.21602354	      0.57939288	     -2.45632322	    -20.32319250	     -0.03638472	     -5.45761764	      9.82797343	    -15.07883254	      1.46897152	     -1.94902171	    -23.77282574	     15.01572368	     15.98343599	     17.66616662	    -14.21232089	      1.86381216	     -4.31550250
      0.49666667	     -0.63999155	      0.93754659	      0.68018446	     -0.68619779	      1.03581015	      0.25065676	     27.14887339	      0.69730306	     -2.53350511	    -21.11375695	      0.05754850	     -5.47886657	      9.81095930	    -14.75114259	      1.14729632	     -2.33437551	    -25.20714543	     14.29038267	     16.46388397	     17.78538188	    -14.23246186	      2.12666071	     -4.28796907
      0.50083333	     -0.54632014	      0.77786826	      0.75270703	     -0.67973551	      1.03614230	      0.25111963	     27.01839318	      0.86129201	     -2.56446130	    -21.82866423	      0.09629600	     -5.65987482	      9.62634796	    -14.41724821	      0.78105705	     -2.76640030	    -26.69752519	     13.50421151	     16.97461562	     18.72755052	    -14.30538064	      2.43213296	     -4.23934461
      0.50500000	     -0.49201994	      0.66613769	      0.83995424	     -0.67328769	      1.03642133	      0.25152324	     26.94322245	      0.94500163	     -2.72383351	    -22.58469159	      0.37304060	     -5.48905585	      9.60606550	    -14.01242345	      0.47150364	     -3.09899949	    -28.21942374	     12.66147515	     17.32515623	     18.88010460	    -14.31014745	      2.65998514	     -4.20031217
      0.50916667	     -0.42567324	      0.52556118	      0.91906987	     -0.66686696	      1.03677432	      0.25198606	     26.80807078	      1.07645298	     -2.83573060	    -23.23746062	      0.59108587	     -5.45461327	      9.57505653	    -13.58624952	      0.11269441	     -3.46828892	    -29.79122450	     11.75224881	     17.69265769	     19.05832180	    -14.33684241	      2.92182098	     -4.15837396
      0.51333333	     -0.33943447	      0.38701518	      0.99229632	     -0.66050342	      1.03718230	      0.25247219	     26.63086162	      1.21059975	     -2.95197207	    -23.84416090	      0.84483418	     -5.41750782	      9.53868871	    -13.15205999	     -0.25096465	     -3.82555420	    -31.39550170	     10.79812328	     18.00824503	     19.25304739	    -14.39489670	      3.17966035	     -4.10630164
      0.51750000	     -0.25782983	      0.24678751	      1.06403449	     -0.65417718	      1.03761518	      0.25297667	     26.43343490	      1.35042560	     -3.07252348	    -24.39898086	      1.12992882	     -5.37742126	      9.49393211	    -12.68225712	     -0.62471076	     -4.16826906	    -33.03188779	      9.81280915	     18.27491971	     19.46980452	    -14.45351740	      3.43914950	     -4.05089112
      0.52166667	     -0.17075448	      0.10358319	      1.13713874	     -0.64790115	      1.03808869	      0.25348917	     26.20366749	      1.49666827	     -3.19317634	    -24.89763774	      1.44275078	     -5.33011395	      9.44511748	    -12.19100104	     -1.00729152	     -4.48487946	    -34.69560381	      8.77595121	     18.46165224	     19.68300214	    -14.51992727	      3.69319301	     -3.99164514
      0.52583333	     -0.09028441	     -0.03834459	      1.21106881	     -0.64167104	      1.03858141	      0.25400676	     25.95740570	      1.64532631	     -3.31414470	    -25.34607172	      1.77949366	     -5.29143770	      9.39231686	    -11.66494351	     -1.39284850	     -4.77891565	    -36.38115656	      7.73876948	     18.58139851	     19.88109687	    -14.58151952	      3.94527672	     -3.93002926
      0.53000000	     -0.00929988	     -0.17126607	      1.28899107	     -0.63550725	      1.03909862	      0.25452865	     25.69027415	      1.79088448	     -3.41747574	    -25.75420292	      2.18104304	     -5.25462129	      8.33721058	    -11.11859780	     -1.76671007	     -5.02107832	    -38.06622282	      6.62852851	     18.55723321	     22.78550105	    -14.65282879	      4.18629977	     -3.89360218
      0.53416667	      0.08162644	     -0.31300277	      1.37234126	     -0.62939040	      1.03968011	      0.25503794	     25.38191039	      1.94779538	     -3.52054984	    -26.09152281	      2.54268135	     -5.25133539	      8.34554233	    -10.55945300	     -2.15149105	     -5.23537598	    -39.76759210	      5.55849464	     18.49095886	     22.75954083	    -14.74273181	      4.42775971	     -3.81207074
